<svg xmlns="http://www.w3.org/2000/svg" viewBox="0 0 64 64" width="64" height="64">
  <g>
    <rect x="10" y="28" width="44" height="28" rx="2" fill="#46514e"/>
    <rect x="14" y="34" width="6" height="6" fill="#d8e0c8" opacity="0.6"/>
    <rect x="24" y="34" width="6" height="6" fill="#d8e0c8" opacity="0.6"/>
    <rect x="34" y="34" width="6" height="6" fill="#d8e0c8" opacity="0.6"/>
    <rect x="44" y="34" width="6" height="6" fill="#d8e0c8" opacity="0.6"/>
    <rect x="14" y="44" width="6" height="6" fill="#d8e0c8" opacity="0.6"/>
    <rect x="24" y="44" width="6" height="6" fill="#d8e0c8" opacity="0.6"/>
    <rect x="34" y="44" width="6" height="6" fill="#d8e0c8" opacity="0.6"/>
    <rect x="44" y="44" width="6" height="6" fill="#d8e0c8" opacity="0.6"/>
    <rect x="6" y="22" width="52" height="8" rx="2" fill="#3a7d3a"/>
    <circle cx="14" cy="22" r="4" fill="#7fbf5c"/>
    <circle cx="22" cy="20" r="4" fill="#7fbf5c"/>
    <circle cx="30" cy="22" r="4" fill="#7fbf5c"/>
    <circle cx="38" cy="20" r="4" fill="#7fbf5c"/>
    <circle cx="46" cy="22" r="4" fill="#7fbf5c"/>
    <circle cx="54" cy="22" r="4" fill="#7fbf5c"/>
  </g>
</svg>
