<svg xmlns="http://www.w3.org/2000/svg" viewBox="0 0 64 64" width="64" height="64">
  <g>
    <rect x="10" y="20" width="20" height="36" fill="#5d6864"/>
    <rect x="30" y="14" width="24" height="42" fill="#6c7a74"/>
    <rect x="14" y="26" width="4" height="4" fill="#d8e0c8"/>
    <rect x="22" y="26" width="4" height="4" fill="#d8e0c8"/>
    <rect x="14" y="36" width="4" height="4" fill="#d8e0c8"/>
    <rect x="22" y="36" width="4" height="4" fill="#d8e0c8"/>
    <rect x="14" y="46" width="4" height="4" fill="#d8e0c8"/>
    <rect x="22" y="46" width="4" height="4" fill="#d8e0c8"/>
    <rect x="34" y="22" width="5" height="4" fill="#d8e0c8"/>
    <rect x="44" y="22" width="5" height="4" fill="#d8e0c8"/>
    <rect x="34" y="32" width="5" height="4" fill="#d8e0c8"/>
    <rect x="44" y="32" width="5" height="4" fill="#d8e0c8"/>
    <rect x="34" y="42" width="5" height="4" fill="#d8e0c8"/>
    <rect x="44" y="42" width="5" height="4" fill="#d8e0c8"/>
    <circle cx="8" cy="50" r="4" fill="#3a7d3a"/>
    <circle cx="58" cy="50" r="4" fill="#3a7d3a"/>
  </g>
</svg>
