<?xml version="1.0" encoding="UTF-8"?>
<svg xmlns="http://www.w3.org/2000/svg" viewBox="0 0 1200 800" role="img" aria-label="Garten von Familie Steininger">
  <defs>
    <linearGradient id="sky-c-004" x1="0" y1="0" x2="0" y2="1">
      <stop offset="0%" stop-color="hsl(234 38% 18%)"/>
      <stop offset="60%" stop-color="hsl(219 30% 30%)"/>
      <stop offset="100%" stop-color="#1b1208"/>
    </linearGradient>
    <radialGradient id="sun-c-004" cx="78%" cy="22%" r="40%">
      <stop offset="0%" stop-color="rgba(255, 235, 180, 0.55)"/>
      <stop offset="60%" stop-color="rgba(255, 235, 180, 0)"/>
    </radialGradient>
    <linearGradient id="ground-c-004" x1="0" y1="0" x2="0" y2="1">
      <stop offset="0%" stop-color="#3a2415"/>
      <stop offset="100%" stop-color="#1b1208"/>
    </linearGradient>
  </defs>
  <rect width="1200" height="800" fill="url(#sky-c-004)"/>
  <rect width="1200" height="800" fill="url(#sun-c-004)"/>
  <path d="M0 460 Q 300 380 600 440 T 1200 420 L 1200 800 L 0 800 Z" fill="url(#ground-c-004)"/>
  
  
      <g transform="translate(699 542)">
        <rect x="-8" y="0" width="16" height="116" rx="4" fill="#3a2410"/>
        <ellipse cx="0" cy="-35" rx="88" ry="75" fill="#3a2415" opacity="0.92"/>
        <ellipse cx="1" cy="-53" rx="62" ry="53" fill="#6f4520" opacity="0.85"/>
        <ellipse cx="5" cy="-71" rx="40" ry="35" fill="#b6884c" opacity="0.75"/>
      </g>

      <g transform="translate(491 526)">
        <rect x="-8" y="0" width="16" height="122" rx="4" fill="#3a2410"/>
        <ellipse cx="0" cy="-34" rx="84" ry="71" fill="#3a2415" opacity="0.92"/>
        <ellipse cx="-9" cy="-50" rx="59" ry="50" fill="#6f4520" opacity="0.85"/>
        <ellipse cx="1" cy="-67" rx="38" ry="34" fill="#b6884c" opacity="0.75"/>
      </g>
  
      <ellipse cx="673" cy="601" rx="33" ry="21" fill="#6f4520" opacity="0.85"/>
      <ellipse cx="674" cy="591" rx="21" ry="15" fill="#b6884c" opacity="0.8"/>

      <ellipse cx="298" cy="601" rx="33" ry="22" fill="#6f4520" opacity="0.85"/>
      <ellipse cx="299" cy="591" rx="22" ry="15" fill="#b6884c" opacity="0.8"/>

      <ellipse cx="89" cy="682" rx="54" ry="35" fill="#6f4520" opacity="0.85"/>
      <ellipse cx="100" cy="666" rx="35" ry="24" fill="#b6884c" opacity="0.8"/>

      <ellipse cx="1030" cy="630" rx="72" ry="47" fill="#6f4520" opacity="0.85"/>
      <ellipse cx="1031" cy="608" rx="47" ry="33" fill="#b6884c" opacity="0.8"/>

      <ellipse cx="440" cy="688" rx="66" ry="43" fill="#6f4520" opacity="0.85"/>
      <ellipse cx="444" cy="668" rx="43" ry="30" fill="#b6884c" opacity="0.8"/>

      <ellipse cx="877" cy="688" rx="39" ry="26" fill="#6f4520" opacity="0.85"/>
      <ellipse cx="882" cy="676" rx="26" ry="18" fill="#b6884c" opacity="0.8"/>

      <ellipse cx="798" cy="702" rx="71" ry="46" fill="#6f4520" opacity="0.85"/>
      <ellipse cx="808" cy="681" rx="46" ry="32" fill="#b6884c" opacity="0.8"/>
  
    <path d="M0 750 Q 300 690 600 740 T 1200 720 L 1200 800 L 0 800 Z" fill="#7d7b6b" opacity="0.55"/>
    <path d="M0 760 Q 300 700 600 750 T 1200 730" stroke="#e9d49a" stroke-width="2" fill="none" opacity="0.4"/>
  
  <rect x="40" y="40" width="320" height="64" rx="12" fill="rgba(8, 14, 8, 0.55)"/>
  <text x="60" y="80" font-family="Geist, Inter, sans-serif" font-size="22" font-weight="600" fill="#e9d49a">Familie Steininger</text>
</svg>
