<?xml version="1.0" encoding="UTF-8"?>
<svg xmlns="http://www.w3.org/2000/svg" viewBox="0 0 1200 800" role="img" aria-label="Garten von Familie Aigner">
  <defs>
    <linearGradient id="sky-c-008" x1="0" y1="0" x2="0" y2="1">
      <stop offset="0%" stop-color="hsl(218 38% 18%)"/>
      <stop offset="60%" stop-color="hsl(203 30% 30%)"/>
      <stop offset="100%" stop-color="#0e1f12"/>
    </linearGradient>
    <radialGradient id="sun-c-008" cx="78%" cy="22%" r="40%">
      <stop offset="0%" stop-color="rgba(255, 235, 180, 0.55)"/>
      <stop offset="60%" stop-color="rgba(255, 235, 180, 0)"/>
    </radialGradient>
    <linearGradient id="ground-c-008" x1="0" y1="0" x2="0" y2="1">
      <stop offset="0%" stop-color="#1f4127"/>
      <stop offset="100%" stop-color="#0e1f12"/>
    </linearGradient>
  </defs>
  <rect width="1200" height="800" fill="url(#sky-c-008)"/>
  <rect width="1200" height="800" fill="url(#sun-c-008)"/>
  <path d="M0 460 Q 300 380 600 440 T 1200 420 L 1200 800 L 0 800 Z" fill="url(#ground-c-008)"/>
  
  
      <g transform="translate(253 580)">
        <rect x="-8" y="0" width="16" height="119" rx="4" fill="#3a2410"/>
        <ellipse cx="0" cy="-45" rx="113" ry="96" fill="#1f4127" opacity="0.92"/>
        <ellipse cx="-1" cy="-68" rx="79" ry="68" fill="#3a7d3a" opacity="0.85"/>
        <ellipse cx="1" cy="-90" rx="51" ry="45" fill="#7fbf5c" opacity="0.75"/>
      </g>

      <g transform="translate(414 660)">
        <rect x="-8" y="0" width="16" height="116" rx="4" fill="#3a2410"/>
        <ellipse cx="0" cy="-32" rx="80" ry="68" fill="#1f4127" opacity="0.92"/>
        <ellipse cx="-0" cy="-48" rx="56" ry="48" fill="#3a7d3a" opacity="0.85"/>
        <ellipse cx="-8" cy="-64" rx="36" ry="32" fill="#7fbf5c" opacity="0.75"/>
      </g>

      <g transform="translate(132 583)">
        <rect x="-8" y="0" width="16" height="140" rx="4" fill="#3a2410"/>
        <ellipse cx="0" cy="-34" rx="85" ry="72" fill="#1f4127" opacity="0.92"/>
        <ellipse cx="-14" cy="-51" rx="59" ry="51" fill="#3a7d3a" opacity="0.85"/>
        <ellipse cx="5" cy="-68" rx="38" ry="34" fill="#7fbf5c" opacity="0.75"/>
      </g>

      <g transform="translate(612 510)">
        <rect x="-8" y="0" width="16" height="99" rx="4" fill="#3a2410"/>
        <ellipse cx="0" cy="-45" rx="112" ry="95" fill="#1f4127" opacity="0.92"/>
        <ellipse cx="-9" cy="-67" rx="78" ry="67" fill="#3a7d3a" opacity="0.85"/>
        <ellipse cx="-12" cy="-90" rx="50" ry="45" fill="#7fbf5c" opacity="0.75"/>
      </g>
  
      <ellipse cx="646" cy="677" rx="69" ry="45" fill="#3a7d3a" opacity="0.85"/>
      <ellipse cx="655" cy="656" rx="45" ry="31" fill="#7fbf5c" opacity="0.8"/>

      <ellipse cx="635" cy="544" rx="70" ry="46" fill="#3a7d3a" opacity="0.85"/>
      <ellipse cx="644" cy="523" rx="46" ry="32" fill="#7fbf5c" opacity="0.8"/>

      <ellipse cx="1027" cy="556" rx="36" ry="23" fill="#3a7d3a" opacity="0.85"/>
      <ellipse cx="1028" cy="545" rx="23" ry="16" fill="#7fbf5c" opacity="0.8"/>

      <ellipse cx="92" cy="737" rx="45" ry="29" fill="#3a7d3a" opacity="0.85"/>
      <ellipse cx="99" cy="724" rx="29" ry="20" fill="#7fbf5c" opacity="0.8"/>

      <ellipse cx="460" cy="661" rx="54" ry="35" fill="#3a7d3a" opacity="0.85"/>
      <ellipse cx="464" cy="645" rx="35" ry="24" fill="#7fbf5c" opacity="0.8"/>

      <ellipse cx="433" cy="608" rx="67" ry="43" fill="#3a7d3a" opacity="0.85"/>
      <ellipse cx="439" cy="588" rx="43" ry="30" fill="#7fbf5c" opacity="0.8"/>

      <ellipse cx="941" cy="708" rx="70" ry="46" fill="#3a7d3a" opacity="0.85"/>
      <ellipse cx="946" cy="687" rx="46" ry="32" fill="#7fbf5c" opacity="0.8"/>

      <ellipse cx="757" cy="548" rx="30" ry="19" fill="#3a7d3a" opacity="0.85"/>
      <ellipse cx="769" cy="539" rx="19" ry="13" fill="#7fbf5c" opacity="0.8"/>

      <ellipse cx="368" cy="702" rx="68" ry="44" fill="#3a7d3a" opacity="0.85"/>
      <ellipse cx="375" cy="681" rx="44" ry="31" fill="#7fbf5c" opacity="0.8"/>
  
    <path d="M0 750 Q 300 690 600 740 T 1200 720 L 1200 800 L 0 800 Z" fill="#bcae8a" opacity="0.55"/>
    <path d="M0 760 Q 300 700 600 750 T 1200 730" stroke="#dcefb1" stroke-width="2" fill="none" opacity="0.4"/>
  
  <rect x="40" y="40" width="320" height="64" rx="12" fill="rgba(8, 14, 8, 0.55)"/>
  <text x="60" y="80" font-family="Geist, Inter, sans-serif" font-size="22" font-weight="600" fill="#dcefb1">Familie Aigner</text>
</svg>
