<?xml version="1.0" encoding="UTF-8"?>
<svg xmlns="http://www.w3.org/2000/svg" viewBox="0 0 1200 800" role="img" aria-label="Garten von Familie Brandstätter">
  <defs>
    <linearGradient id="sky-c-005" x1="0" y1="0" x2="0" y2="1">
      <stop offset="0%" stop-color="hsl(232 38% 18%)"/>
      <stop offset="60%" stop-color="hsl(217 30% 30%)"/>
      <stop offset="100%" stop-color="#0c1b1f"/>
    </linearGradient>
    <radialGradient id="sun-c-005" cx="78%" cy="22%" r="40%">
      <stop offset="0%" stop-color="rgba(255, 235, 180, 0.55)"/>
      <stop offset="60%" stop-color="rgba(255, 235, 180, 0)"/>
    </radialGradient>
    <linearGradient id="ground-c-005" x1="0" y1="0" x2="0" y2="1">
      <stop offset="0%" stop-color="#143b40"/>
      <stop offset="100%" stop-color="#0c1b1f"/>
    </linearGradient>
  </defs>
  <rect width="1200" height="800" fill="url(#sky-c-005)"/>
  <rect width="1200" height="800" fill="url(#sun-c-005)"/>
  <path d="M0 460 Q 300 380 600 440 T 1200 420 L 1200 800 L 0 800 Z" fill="url(#ground-c-005)"/>
  <ellipse cx="819" cy="635" rx="187" ry="41" fill="#3a8fb0" opacity="0.85"/>
  
      <g transform="translate(599 557)">
        <rect x="-8" y="0" width="16" height="99" rx="4" fill="#3a2410"/>
        <ellipse cx="0" cy="-30" rx="75" ry="64" fill="#143b40" opacity="0.92"/>
        <ellipse cx="8" cy="-45" rx="53" ry="45" fill="#266b62" opacity="0.85"/>
        <ellipse cx="-0" cy="-60" rx="34" ry="30" fill="#5fb5a0" opacity="0.75"/>
      </g>

      <g transform="translate(366 543)">
        <rect x="-8" y="0" width="16" height="148" rx="4" fill="#3a2410"/>
        <ellipse cx="0" cy="-36" rx="89" ry="76" fill="#143b40" opacity="0.92"/>
        <ellipse cx="2" cy="-54" rx="63" ry="54" fill="#266b62" opacity="0.85"/>
        <ellipse cx="7" cy="-71" rx="40" ry="36" fill="#5fb5a0" opacity="0.75"/>
      </g>

      <g transform="translate(607 498)">
        <rect x="-8" y="0" width="16" height="103" rx="4" fill="#3a2410"/>
        <ellipse cx="0" cy="-46" rx="115" ry="98" fill="#143b40" opacity="0.92"/>
        <ellipse cx="2" cy="-69" rx="80" ry="69" fill="#266b62" opacity="0.85"/>
        <ellipse cx="-3" cy="-92" rx="52" ry="46" fill="#5fb5a0" opacity="0.75"/>
      </g>

      <g transform="translate(1001 609)">
        <rect x="-8" y="0" width="16" height="147" rx="4" fill="#3a2410"/>
        <ellipse cx="0" cy="-46" rx="115" ry="98" fill="#143b40" opacity="0.92"/>
        <ellipse cx="12" cy="-69" rx="81" ry="69" fill="#266b62" opacity="0.85"/>
        <ellipse cx="-14" cy="-92" rx="52" ry="46" fill="#5fb5a0" opacity="0.75"/>
      </g>

      <g transform="translate(603 612)">
        <rect x="-8" y="0" width="16" height="95" rx="4" fill="#3a2410"/>
        <ellipse cx="0" cy="-50" rx="124" ry="105" fill="#143b40" opacity="0.92"/>
        <ellipse cx="1" cy="-74" rx="87" ry="74" fill="#266b62" opacity="0.85"/>
        <ellipse cx="0" cy="-99" rx="56" ry="50" fill="#5fb5a0" opacity="0.75"/>
      </g>
  
      <ellipse cx="845" cy="679" rx="48" ry="31" fill="#266b62" opacity="0.85"/>
      <ellipse cx="852" cy="664" rx="31" ry="21" fill="#5fb5a0" opacity="0.8"/>

      <ellipse cx="990" cy="552" rx="33" ry="22" fill="#266b62" opacity="0.85"/>
      <ellipse cx="998" cy="542" rx="22" ry="15" fill="#5fb5a0" opacity="0.8"/>

      <ellipse cx="773" cy="576" rx="42" ry="27" fill="#266b62" opacity="0.85"/>
      <ellipse cx="774" cy="563" rx="27" ry="19" fill="#5fb5a0" opacity="0.8"/>

      <ellipse cx="853" cy="728" rx="53" ry="34" fill="#266b62" opacity="0.85"/>
      <ellipse cx="859" cy="712" rx="34" ry="24" fill="#5fb5a0" opacity="0.8"/>
  
    <path d="M0 750 Q 300 690 600 740 T 1200 720 L 1200 800 L 0 800 Z" fill="#7a4f24" opacity="0.55"/>
    <path d="M0 760 Q 300 700 600 750 T 1200 730" stroke="#cdeacb" stroke-width="2" fill="none" opacity="0.4"/>
  
  <rect x="40" y="40" width="320" height="64" rx="12" fill="rgba(8, 14, 8, 0.55)"/>
  <text x="60" y="80" font-family="Geist, Inter, sans-serif" font-size="22" font-weight="600" fill="#cdeacb">Familie Brandstätter</text>
</svg>
