<?xml version="1.0" encoding="UTF-8"?>
<svg xmlns="http://www.w3.org/2000/svg" viewBox="0 0 1200 800" role="img" aria-label="Garten von Familie Pöschl">
  <defs>
    <linearGradient id="sky-c-007" x1="0" y1="0" x2="0" y2="1">
      <stop offset="0%" stop-color="hsl(196 38% 18%)"/>
      <stop offset="60%" stop-color="hsl(181 30% 30%)"/>
      <stop offset="100%" stop-color="#0d1c0d"/>
    </linearGradient>
    <radialGradient id="sun-c-007" cx="78%" cy="22%" r="40%">
      <stop offset="0%" stop-color="rgba(255, 235, 180, 0.55)"/>
      <stop offset="60%" stop-color="rgba(255, 235, 180, 0)"/>
    </radialGradient>
    <linearGradient id="ground-c-007" x1="0" y1="0" x2="0" y2="1">
      <stop offset="0%" stop-color="#22552b"/>
      <stop offset="100%" stop-color="#0d1c0d"/>
    </linearGradient>
  </defs>
  <rect width="1200" height="800" fill="url(#sky-c-007)"/>
  <rect width="1200" height="800" fill="url(#sun-c-007)"/>
  <path d="M0 460 Q 300 380 600 440 T 1200 420 L 1200 800 L 0 800 Z" fill="url(#ground-c-007)"/>
  <ellipse cx="798" cy="675" rx="166" ry="36" fill="#266c8a" opacity="0.85"/>
  
      <g transform="translate(775 647)">
        <rect x="-8" y="0" width="16" height="112" rx="4" fill="#3a2410"/>
        <ellipse cx="0" cy="-31" rx="78" ry="66" fill="#22552b" opacity="0.92"/>
        <ellipse cx="-14" cy="-47" rx="54" ry="47" fill="#4b9a4a" opacity="0.85"/>
        <ellipse cx="-12" cy="-62" rx="35" ry="31" fill="#9bd07a" opacity="0.75"/>
      </g>

      <g transform="translate(372 570)">
        <rect x="-8" y="0" width="16" height="135" rx="4" fill="#3a2410"/>
        <ellipse cx="0" cy="-46" rx="116" ry="99" fill="#22552b" opacity="0.92"/>
        <ellipse cx="-11" cy="-70" rx="81" ry="70" fill="#4b9a4a" opacity="0.85"/>
        <ellipse cx="8" cy="-93" rx="52" ry="46" fill="#9bd07a" opacity="0.75"/>
      </g>

      <g transform="translate(1018 495)">
        <rect x="-8" y="0" width="16" height="131" rx="4" fill="#3a2410"/>
        <ellipse cx="0" cy="-37" rx="92" ry="78" fill="#22552b" opacity="0.92"/>
        <ellipse cx="-12" cy="-55" rx="64" ry="55" fill="#4b9a4a" opacity="0.85"/>
        <ellipse cx="8" cy="-73" rx="41" ry="37" fill="#9bd07a" opacity="0.75"/>
      </g>
  
      <ellipse cx="384" cy="699" rx="38" ry="25" fill="#4b9a4a" opacity="0.85"/>
      <ellipse cx="388" cy="688" rx="25" ry="17" fill="#9bd07a" opacity="0.8"/>

      <ellipse cx="512" cy="740" rx="61" ry="40" fill="#4b9a4a" opacity="0.85"/>
      <ellipse cx="522" cy="722" rx="40" ry="27" fill="#9bd07a" opacity="0.8"/>

      <ellipse cx="232" cy="545" rx="59" ry="38" fill="#4b9a4a" opacity="0.85"/>
      <ellipse cx="244" cy="527" rx="38" ry="26" fill="#9bd07a" opacity="0.8"/>

      <ellipse cx="663" cy="629" rx="63" ry="41" fill="#4b9a4a" opacity="0.85"/>
      <ellipse cx="670" cy="610" rx="41" ry="29" fill="#9bd07a" opacity="0.8"/>
  
    <path d="M0 750 Q 300 690 600 740 T 1200 720 L 1200 800 L 0 800 Z" fill="#7d7b6b" opacity="0.55"/>
    <path d="M0 760 Q 300 700 600 750 T 1200 730" stroke="#f3eec0" stroke-width="2" fill="none" opacity="0.4"/>
  
  <rect x="40" y="40" width="320" height="64" rx="12" fill="rgba(8, 14, 8, 0.55)"/>
  <text x="60" y="80" font-family="Geist, Inter, sans-serif" font-size="22" font-weight="600" fill="#f3eec0">Familie Pöschl</text>
</svg>
