<?xml version="1.0" encoding="UTF-8"?>
<svg xmlns="http://www.w3.org/2000/svg" viewBox="0 0 1200 800" role="img" aria-label="Garten von Familie Kaltenböck">
  <defs>
    <linearGradient id="sky-c-006" x1="0" y1="0" x2="0" y2="1">
      <stop offset="0%" stop-color="hsl(198 38% 18%)"/>
      <stop offset="60%" stop-color="hsl(183 30% 30%)"/>
      <stop offset="100%" stop-color="#0a1f2a"/>
    </linearGradient>
    <radialGradient id="sun-c-006" cx="78%" cy="22%" r="40%">
      <stop offset="0%" stop-color="rgba(255, 235, 180, 0.55)"/>
      <stop offset="60%" stop-color="rgba(255, 235, 180, 0)"/>
    </radialGradient>
    <linearGradient id="ground-c-006" x1="0" y1="0" x2="0" y2="1">
      <stop offset="0%" stop-color="#1d4c5e"/>
      <stop offset="100%" stop-color="#0a1f2a"/>
    </linearGradient>
  </defs>
  <rect width="1200" height="800" fill="url(#sky-c-006)"/>
  <rect width="1200" height="800" fill="url(#sun-c-006)"/>
  <path d="M0 460 Q 300 380 600 440 T 1200 420 L 1200 800 L 0 800 Z" fill="url(#ground-c-006)"/>
  
  
      <g transform="translate(896 643)">
        <rect x="-8" y="0" width="16" height="123" rx="4" fill="#3a2410"/>
        <ellipse cx="0" cy="-30" rx="74" ry="63" fill="#1d4c5e" opacity="0.92"/>
        <ellipse cx="10" cy="-44" rx="52" ry="44" fill="#3e8a8f" opacity="0.85"/>
        <ellipse cx="-7" cy="-59" rx="33" ry="30" fill="#86c8b8" opacity="0.75"/>
      </g>

      <g transform="translate(968 610)">
        <rect x="-8" y="0" width="16" height="149" rx="4" fill="#3a2410"/>
        <ellipse cx="0" cy="-35" rx="88" ry="75" fill="#1d4c5e" opacity="0.92"/>
        <ellipse cx="-14" cy="-53" rx="62" ry="53" fill="#3e8a8f" opacity="0.85"/>
        <ellipse cx="-11" cy="-70" rx="40" ry="35" fill="#86c8b8" opacity="0.75"/>
      </g>

      <g transform="translate(905 677)">
        <rect x="-8" y="0" width="16" height="133" rx="4" fill="#3a2410"/>
        <ellipse cx="0" cy="-45" rx="113" ry="96" fill="#1d4c5e" opacity="0.92"/>
        <ellipse cx="-0" cy="-68" rx="79" ry="68" fill="#3e8a8f" opacity="0.85"/>
        <ellipse cx="-1" cy="-90" rx="51" ry="45" fill="#86c8b8" opacity="0.75"/>
      </g>

      <g transform="translate(670 538)">
        <rect x="-8" y="0" width="16" height="126" rx="4" fill="#3a2410"/>
        <ellipse cx="0" cy="-42" rx="105" ry="89" fill="#1d4c5e" opacity="0.92"/>
        <ellipse cx="-9" cy="-63" rx="74" ry="63" fill="#3e8a8f" opacity="0.85"/>
        <ellipse cx="12" cy="-84" rx="47" ry="42" fill="#86c8b8" opacity="0.75"/>
      </g>
  
      <ellipse cx="530" cy="661" rx="49" ry="32" fill="#3e8a8f" opacity="0.85"/>
      <ellipse cx="537" cy="646" rx="32" ry="22" fill="#86c8b8" opacity="0.8"/>

      <ellipse cx="237" cy="746" rx="38" ry="24" fill="#3e8a8f" opacity="0.85"/>
      <ellipse cx="241" cy="734" rx="24" ry="17" fill="#86c8b8" opacity="0.8"/>

      <ellipse cx="849" cy="688" rx="40" ry="26" fill="#3e8a8f" opacity="0.85"/>
      <ellipse cx="860" cy="676" rx="26" ry="18" fill="#86c8b8" opacity="0.8"/>

      <ellipse cx="828" cy="729" rx="31" ry="20" fill="#3e8a8f" opacity="0.85"/>
      <ellipse cx="833" cy="720" rx="20" ry="14" fill="#86c8b8" opacity="0.8"/>

      <ellipse cx="421" cy="598" rx="61" ry="40" fill="#3e8a8f" opacity="0.85"/>
      <ellipse cx="433" cy="580" rx="40" ry="27" fill="#86c8b8" opacity="0.8"/>

      <ellipse cx="624" cy="643" rx="35" ry="23" fill="#3e8a8f" opacity="0.85"/>
      <ellipse cx="632" cy="633" rx="23" ry="16" fill="#86c8b8" opacity="0.8"/>

      <ellipse cx="1089" cy="719" rx="71" ry="46" fill="#3e8a8f" opacity="0.85"/>
      <ellipse cx="1094" cy="698" rx="46" ry="32" fill="#86c8b8" opacity="0.8"/>
  
    <path d="M0 750 Q 300 690 600 740 T 1200 720 L 1200 800 L 0 800 Z" fill="#7d7b6b" opacity="0.55"/>
    <path d="M0 760 Q 300 700 600 750 T 1200 730" stroke="#e6f5d6" stroke-width="2" fill="none" opacity="0.4"/>
  
  <rect x="40" y="40" width="320" height="64" rx="12" fill="rgba(8, 14, 8, 0.55)"/>
  <text x="60" y="80" font-family="Geist, Inter, sans-serif" font-size="22" font-weight="600" fill="#e6f5d6">Familie Kaltenböck</text>
</svg>
