<?xml version="1.0" encoding="UTF-8"?>
<svg xmlns="http://www.w3.org/2000/svg" viewBox="0 0 1200 800" role="img" aria-label="Garten von Familie Eder">
  <defs>
    <linearGradient id="sky-c-014" x1="0" y1="0" x2="0" y2="1">
      <stop offset="0%" stop-color="hsl(217 38% 18%)"/>
      <stop offset="60%" stop-color="hsl(202 30% 30%)"/>
      <stop offset="100%" stop-color="#0a1f2a"/>
    </linearGradient>
    <radialGradient id="sun-c-014" cx="78%" cy="22%" r="40%">
      <stop offset="0%" stop-color="rgba(255, 235, 180, 0.55)"/>
      <stop offset="60%" stop-color="rgba(255, 235, 180, 0)"/>
    </radialGradient>
    <linearGradient id="ground-c-014" x1="0" y1="0" x2="0" y2="1">
      <stop offset="0%" stop-color="#1d4c5e"/>
      <stop offset="100%" stop-color="#0a1f2a"/>
    </linearGradient>
  </defs>
  <rect width="1200" height="800" fill="url(#sky-c-014)"/>
  <rect width="1200" height="800" fill="url(#sun-c-014)"/>
  <path d="M0 460 Q 300 380 600 440 T 1200 420 L 1200 800 L 0 800 Z" fill="url(#ground-c-014)"/>
  
  
      <g transform="translate(337 578)">
        <rect x="-8" y="0" width="16" height="118" rx="4" fill="#3a2410"/>
        <ellipse cx="0" cy="-49" rx="123" ry="105" fill="#1d4c5e" opacity="0.92"/>
        <ellipse cx="-11" cy="-74" rx="86" ry="74" fill="#3e8a8f" opacity="0.85"/>
        <ellipse cx="-5" cy="-99" rx="55" ry="49" fill="#86c8b8" opacity="0.75"/>
      </g>

      <g transform="translate(777 550)">
        <rect x="-8" y="0" width="16" height="95" rx="4" fill="#3a2410"/>
        <ellipse cx="0" cy="-41" rx="104" ry="88" fill="#1d4c5e" opacity="0.92"/>
        <ellipse cx="-14" cy="-62" rx="73" ry="62" fill="#3e8a8f" opacity="0.85"/>
        <ellipse cx="-4" cy="-83" rx="47" ry="41" fill="#86c8b8" opacity="0.75"/>
      </g>

      <g transform="translate(811 630)">
        <rect x="-8" y="0" width="16" height="149" rx="4" fill="#3a2410"/>
        <ellipse cx="0" cy="-38" rx="96" ry="81" fill="#1d4c5e" opacity="0.92"/>
        <ellipse cx="14" cy="-57" rx="67" ry="57" fill="#3e8a8f" opacity="0.85"/>
        <ellipse cx="3" cy="-76" rx="43" ry="38" fill="#86c8b8" opacity="0.75"/>
      </g>

      <g transform="translate(884 583)">
        <rect x="-8" y="0" width="16" height="118" rx="4" fill="#3a2410"/>
        <ellipse cx="0" cy="-48" rx="120" ry="102" fill="#1d4c5e" opacity="0.92"/>
        <ellipse cx="5" cy="-72" rx="84" ry="72" fill="#3e8a8f" opacity="0.85"/>
        <ellipse cx="4" cy="-96" rx="54" ry="48" fill="#86c8b8" opacity="0.75"/>
      </g>
  
      <ellipse cx="313" cy="741" rx="31" ry="20" fill="#3e8a8f" opacity="0.85"/>
      <ellipse cx="317" cy="732" rx="20" ry="14" fill="#86c8b8" opacity="0.8"/>

      <ellipse cx="250" cy="683" rx="32" ry="21" fill="#3e8a8f" opacity="0.85"/>
      <ellipse cx="260" cy="673" rx="21" ry="14" fill="#86c8b8" opacity="0.8"/>

      <ellipse cx="802" cy="560" rx="74" ry="48" fill="#3e8a8f" opacity="0.85"/>
      <ellipse cx="804" cy="538" rx="48" ry="34" fill="#86c8b8" opacity="0.8"/>

      <ellipse cx="409" cy="689" rx="55" ry="36" fill="#3e8a8f" opacity="0.85"/>
      <ellipse cx="418" cy="673" rx="36" ry="25" fill="#86c8b8" opacity="0.8"/>

      <ellipse cx="492" cy="659" rx="34" ry="22" fill="#3e8a8f" opacity="0.85"/>
      <ellipse cx="500" cy="649" rx="22" ry="15" fill="#86c8b8" opacity="0.8"/>

      <ellipse cx="165" cy="554" rx="61" ry="40" fill="#3e8a8f" opacity="0.85"/>
      <ellipse cx="168" cy="535" rx="40" ry="27" fill="#86c8b8" opacity="0.8"/>
  
    <path d="M0 750 Q 300 690 600 740 T 1200 720 L 1200 800 L 0 800 Z" fill="#7a4f24" opacity="0.55"/>
    <path d="M0 760 Q 300 700 600 750 T 1200 730" stroke="#e6f5d6" stroke-width="2" fill="none" opacity="0.4"/>
  
  <rect x="40" y="40" width="320" height="64" rx="12" fill="rgba(8, 14, 8, 0.55)"/>
  <text x="60" y="80" font-family="Geist, Inter, sans-serif" font-size="22" font-weight="600" fill="#e6f5d6">Familie Eder</text>
</svg>
