<?xml version="1.0" encoding="UTF-8"?>
<svg xmlns="http://www.w3.org/2000/svg" viewBox="0 0 1200 800" role="img" aria-label="Garten von Restaurant Stadtkrämerei">
  <defs>
    <linearGradient id="sky-c-017" x1="0" y1="0" x2="0" y2="1">
      <stop offset="0%" stop-color="hsl(215 38% 18%)"/>
      <stop offset="60%" stop-color="hsl(200 30% 30%)"/>
      <stop offset="100%" stop-color="#0d1c0d"/>
    </linearGradient>
    <radialGradient id="sun-c-017" cx="78%" cy="22%" r="40%">
      <stop offset="0%" stop-color="rgba(255, 235, 180, 0.55)"/>
      <stop offset="60%" stop-color="rgba(255, 235, 180, 0)"/>
    </radialGradient>
    <linearGradient id="ground-c-017" x1="0" y1="0" x2="0" y2="1">
      <stop offset="0%" stop-color="#22552b"/>
      <stop offset="100%" stop-color="#0d1c0d"/>
    </linearGradient>
  </defs>
  <rect width="1200" height="800" fill="url(#sky-c-017)"/>
  <rect width="1200" height="800" fill="url(#sun-c-017)"/>
  <path d="M0 460 Q 300 380 600 440 T 1200 420 L 1200 800 L 0 800 Z" fill="url(#ground-c-017)"/>
  <ellipse cx="820" cy="621" rx="172" ry="40" fill="#266c8a" opacity="0.85"/>
  
      <g transform="translate(362 482)">
        <rect x="-8" y="0" width="16" height="128" rx="4" fill="#3a2410"/>
        <ellipse cx="0" cy="-29" rx="72" ry="61" fill="#22552b" opacity="0.92"/>
        <ellipse cx="-3" cy="-43" rx="50" ry="43" fill="#4b9a4a" opacity="0.85"/>
        <ellipse cx="5" cy="-57" rx="32" ry="29" fill="#9bd07a" opacity="0.75"/>
      </g>

      <g transform="translate(419 656)">
        <rect x="-8" y="0" width="16" height="126" rx="4" fill="#3a2410"/>
        <ellipse cx="0" cy="-31" rx="79" ry="67" fill="#22552b" opacity="0.92"/>
        <ellipse cx="10" cy="-47" rx="55" ry="47" fill="#4b9a4a" opacity="0.85"/>
        <ellipse cx="10" cy="-63" rx="35" ry="31" fill="#9bd07a" opacity="0.75"/>
      </g>

      <g transform="translate(803 673)">
        <rect x="-8" y="0" width="16" height="111" rx="4" fill="#3a2410"/>
        <ellipse cx="0" cy="-29" rx="73" ry="62" fill="#22552b" opacity="0.92"/>
        <ellipse cx="-0" cy="-44" rx="51" ry="44" fill="#4b9a4a" opacity="0.85"/>
        <ellipse cx="-4" cy="-59" rx="33" ry="29" fill="#9bd07a" opacity="0.75"/>
      </g>
  
      <ellipse cx="193" cy="644" rx="59" ry="38" fill="#4b9a4a" opacity="0.85"/>
      <ellipse cx="193" cy="626" rx="38" ry="27" fill="#9bd07a" opacity="0.8"/>

      <ellipse cx="876" cy="725" rx="61" ry="40" fill="#4b9a4a" opacity="0.85"/>
      <ellipse cx="885" cy="706" rx="40" ry="28" fill="#9bd07a" opacity="0.8"/>

      <ellipse cx="357" cy="701" rx="57" ry="37" fill="#4b9a4a" opacity="0.85"/>
      <ellipse cx="359" cy="684" rx="37" ry="25" fill="#9bd07a" opacity="0.8"/>

      <ellipse cx="1023" cy="653" rx="60" ry="39" fill="#4b9a4a" opacity="0.85"/>
      <ellipse cx="1026" cy="635" rx="39" ry="27" fill="#9bd07a" opacity="0.8"/>

      <ellipse cx="930" cy="541" rx="62" ry="40" fill="#4b9a4a" opacity="0.85"/>
      <ellipse cx="933" cy="522" rx="40" ry="28" fill="#9bd07a" opacity="0.8"/>

      <ellipse cx="1010" cy="710" rx="59" ry="38" fill="#4b9a4a" opacity="0.85"/>
      <ellipse cx="1019" cy="692" rx="38" ry="27" fill="#9bd07a" opacity="0.8"/>

      <ellipse cx="1022" cy="668" rx="48" ry="31" fill="#4b9a4a" opacity="0.85"/>
      <ellipse cx="1029" cy="654" rx="31" ry="22" fill="#9bd07a" opacity="0.8"/>

      <ellipse cx="754" cy="628" rx="69" ry="45" fill="#4b9a4a" opacity="0.85"/>
      <ellipse cx="762" cy="607" rx="45" ry="31" fill="#9bd07a" opacity="0.8"/>

      <ellipse cx="539" cy="695" rx="73" ry="47" fill="#4b9a4a" opacity="0.85"/>
      <ellipse cx="540" cy="673" rx="47" ry="33" fill="#9bd07a" opacity="0.8"/>
  
    <path d="M0 750 Q 300 690 600 740 T 1200 720 L 1200 800 L 0 800 Z" fill="#7a4f24" opacity="0.55"/>
    <path d="M0 760 Q 300 700 600 750 T 1200 730" stroke="#f3eec0" stroke-width="2" fill="none" opacity="0.4"/>
  
  <rect x="40" y="40" width="320" height="64" rx="12" fill="rgba(8, 14, 8, 0.55)"/>
  <text x="60" y="80" font-family="Geist, Inter, sans-serif" font-size="22" font-weight="600" fill="#f3eec0">Restaurant Stadtkrämerei</text>
</svg>
