<?xml version="1.0" encoding="UTF-8"?>
<svg xmlns="http://www.w3.org/2000/svg" viewBox="0 0 1200 800" role="img" aria-label="Garten von Familie Höller">
  <defs>
    <linearGradient id="sky-c-011" x1="0" y1="0" x2="0" y2="1">
      <stop offset="0%" stop-color="hsl(211 38% 18%)"/>
      <stop offset="60%" stop-color="hsl(196 30% 30%)"/>
      <stop offset="100%" stop-color="#0c1b1f"/>
    </linearGradient>
    <radialGradient id="sun-c-011" cx="78%" cy="22%" r="40%">
      <stop offset="0%" stop-color="rgba(255, 235, 180, 0.55)"/>
      <stop offset="60%" stop-color="rgba(255, 235, 180, 0)"/>
    </radialGradient>
    <linearGradient id="ground-c-011" x1="0" y1="0" x2="0" y2="1">
      <stop offset="0%" stop-color="#143b40"/>
      <stop offset="100%" stop-color="#0c1b1f"/>
    </linearGradient>
  </defs>
  <rect width="1200" height="800" fill="url(#sky-c-011)"/>
  <rect width="1200" height="800" fill="url(#sun-c-011)"/>
  <path d="M0 460 Q 300 380 600 440 T 1200 420 L 1200 800 L 0 800 Z" fill="url(#ground-c-011)"/>
  
  
      <g transform="translate(335 555)">
        <rect x="-8" y="0" width="16" height="114" rx="4" fill="#3a2410"/>
        <ellipse cx="0" cy="-31" rx="76" ry="65" fill="#143b40" opacity="0.92"/>
        <ellipse cx="-13" cy="-46" rx="53" ry="46" fill="#266b62" opacity="0.85"/>
        <ellipse cx="-1" cy="-61" rx="34" ry="31" fill="#5fb5a0" opacity="0.75"/>
      </g>

      <g transform="translate(682 502)">
        <rect x="-8" y="0" width="16" height="117" rx="4" fill="#3a2410"/>
        <ellipse cx="0" cy="-43" rx="109" ry="92" fill="#143b40" opacity="0.92"/>
        <ellipse cx="-6" cy="-65" rx="76" ry="65" fill="#266b62" opacity="0.85"/>
        <ellipse cx="8" cy="-87" rx="49" ry="43" fill="#5fb5a0" opacity="0.75"/>
      </g>

      <g transform="translate(900 608)">
        <rect x="-8" y="0" width="16" height="93" rx="4" fill="#3a2410"/>
        <ellipse cx="0" cy="-36" rx="89" ry="75" fill="#143b40" opacity="0.92"/>
        <ellipse cx="-8" cy="-53" rx="62" ry="53" fill="#266b62" opacity="0.85"/>
        <ellipse cx="6" cy="-71" rx="40" ry="36" fill="#5fb5a0" opacity="0.75"/>
      </g>

      <g transform="translate(1048 497)">
        <rect x="-8" y="0" width="16" height="128" rx="4" fill="#3a2410"/>
        <ellipse cx="0" cy="-49" rx="121" ry="103" fill="#143b40" opacity="0.92"/>
        <ellipse cx="3" cy="-73" rx="85" ry="73" fill="#266b62" opacity="0.85"/>
        <ellipse cx="-6" cy="-97" rx="55" ry="49" fill="#5fb5a0" opacity="0.75"/>
      </g>

      <g transform="translate(219 568)">
        <rect x="-8" y="0" width="16" height="94" rx="4" fill="#3a2410"/>
        <ellipse cx="0" cy="-51" rx="128" ry="109" fill="#143b40" opacity="0.92"/>
        <ellipse cx="-4" cy="-77" rx="90" ry="77" fill="#266b62" opacity="0.85"/>
        <ellipse cx="-3" cy="-103" rx="58" ry="51" fill="#5fb5a0" opacity="0.75"/>
      </g>
  
      <ellipse cx="119" cy="695" rx="72" ry="47" fill="#266b62" opacity="0.85"/>
      <ellipse cx="120" cy="674" rx="47" ry="33" fill="#5fb5a0" opacity="0.8"/>

      <ellipse cx="786" cy="560" rx="53" ry="34" fill="#266b62" opacity="0.85"/>
      <ellipse cx="787" cy="545" rx="34" ry="24" fill="#5fb5a0" opacity="0.8"/>

      <ellipse cx="700" cy="680" rx="42" ry="27" fill="#266b62" opacity="0.85"/>
      <ellipse cx="711" cy="667" rx="27" ry="19" fill="#5fb5a0" opacity="0.8"/>

      <ellipse cx="893" cy="578" rx="41" ry="27" fill="#266b62" opacity="0.85"/>
      <ellipse cx="895" cy="566" rx="27" ry="19" fill="#5fb5a0" opacity="0.8"/>

      <ellipse cx="76" cy="729" rx="44" ry="29" fill="#266b62" opacity="0.85"/>
      <ellipse cx="86" cy="716" rx="29" ry="20" fill="#5fb5a0" opacity="0.8"/>

      <ellipse cx="815" cy="622" rx="66" ry="43" fill="#266b62" opacity="0.85"/>
      <ellipse cx="826" cy="603" rx="43" ry="30" fill="#5fb5a0" opacity="0.8"/>

      <ellipse cx="537" cy="545" rx="46" ry="30" fill="#266b62" opacity="0.85"/>
      <ellipse cx="549" cy="531" rx="30" ry="21" fill="#5fb5a0" opacity="0.8"/>

      <ellipse cx="1000" cy="670" rx="35" ry="23" fill="#266b62" opacity="0.85"/>
      <ellipse cx="1007" cy="660" rx="23" ry="16" fill="#5fb5a0" opacity="0.8"/>

      <ellipse cx="1014" cy="758" rx="46" ry="30" fill="#266b62" opacity="0.85"/>
      <ellipse cx="1016" cy="745" rx="30" ry="21" fill="#5fb5a0" opacity="0.8"/>
  
    <path d="M0 750 Q 300 690 600 740 T 1200 720 L 1200 800 L 0 800 Z" fill="#7a4f24" opacity="0.55"/>
    <path d="M0 760 Q 300 700 600 750 T 1200 730" stroke="#cdeacb" stroke-width="2" fill="none" opacity="0.4"/>
  
  <rect x="40" y="40" width="320" height="64" rx="12" fill="rgba(8, 14, 8, 0.55)"/>
  <text x="60" y="80" font-family="Geist, Inter, sans-serif" font-size="22" font-weight="600" fill="#cdeacb">Familie Höller</text>
</svg>
