<?xml version="1.0" encoding="UTF-8"?>
<svg xmlns="http://www.w3.org/2000/svg" viewBox="0 0 1200 800" role="img" aria-label="Garten von Tabakfabrik Linz">
  <defs>
    <linearGradient id="sky-c-019" x1="0" y1="0" x2="0" y2="1">
      <stop offset="0%" stop-color="hsl(227 38% 18%)"/>
      <stop offset="60%" stop-color="hsl(212 30% 30%)"/>
      <stop offset="100%" stop-color="#0a1f2a"/>
    </linearGradient>
    <radialGradient id="sun-c-019" cx="78%" cy="22%" r="40%">
      <stop offset="0%" stop-color="rgba(255, 235, 180, 0.55)"/>
      <stop offset="60%" stop-color="rgba(255, 235, 180, 0)"/>
    </radialGradient>
    <linearGradient id="ground-c-019" x1="0" y1="0" x2="0" y2="1">
      <stop offset="0%" stop-color="#1d4c5e"/>
      <stop offset="100%" stop-color="#0a1f2a"/>
    </linearGradient>
  </defs>
  <rect width="1200" height="800" fill="url(#sky-c-019)"/>
  <rect width="1200" height="800" fill="url(#sun-c-019)"/>
  <path d="M0 460 Q 300 380 600 440 T 1200 420 L 1200 800 L 0 800 Z" fill="url(#ground-c-019)"/>
  <ellipse cx="857" cy="621" rx="153" ry="50" fill="#3a8fb0" opacity="0.85"/>
  
      <g transform="translate(220 562)">
        <rect x="-8" y="0" width="16" height="148" rx="4" fill="#3a2410"/>
        <ellipse cx="0" cy="-39" rx="96" ry="82" fill="#1d4c5e" opacity="0.92"/>
        <ellipse cx="6" cy="-58" rx="67" ry="58" fill="#3e8a8f" opacity="0.85"/>
        <ellipse cx="10" cy="-77" rx="43" ry="39" fill="#86c8b8" opacity="0.75"/>
      </g>

      <g transform="translate(891 531)">
        <rect x="-8" y="0" width="16" height="110" rx="4" fill="#3a2410"/>
        <ellipse cx="0" cy="-42" rx="106" ry="90" fill="#1d4c5e" opacity="0.92"/>
        <ellipse cx="-3" cy="-64" rx="74" ry="64" fill="#3e8a8f" opacity="0.85"/>
        <ellipse cx="6" cy="-85" rx="48" ry="42" fill="#86c8b8" opacity="0.75"/>
      </g>

      <g transform="translate(153 603)">
        <rect x="-8" y="0" width="16" height="112" rx="4" fill="#3a2410"/>
        <ellipse cx="0" cy="-48" rx="121" ry="102" fill="#1d4c5e" opacity="0.92"/>
        <ellipse cx="-15" cy="-72" rx="84" ry="72" fill="#3e8a8f" opacity="0.85"/>
        <ellipse cx="-9" cy="-96" rx="54" ry="48" fill="#86c8b8" opacity="0.75"/>
      </g>

      <g transform="translate(775 575)">
        <rect x="-8" y="0" width="16" height="111" rx="4" fill="#3a2410"/>
        <ellipse cx="0" cy="-33" rx="82" ry="70" fill="#1d4c5e" opacity="0.92"/>
        <ellipse cx="8" cy="-49" rx="58" ry="49" fill="#3e8a8f" opacity="0.85"/>
        <ellipse cx="6" cy="-66" rx="37" ry="33" fill="#86c8b8" opacity="0.75"/>
      </g>
  
      <ellipse cx="370" cy="548" rx="74" ry="48" fill="#3e8a8f" opacity="0.85"/>
      <ellipse cx="376" cy="526" rx="48" ry="33" fill="#86c8b8" opacity="0.8"/>

      <ellipse cx="881" cy="569" rx="33" ry="22" fill="#3e8a8f" opacity="0.85"/>
      <ellipse cx="882" cy="559" rx="22" ry="15" fill="#86c8b8" opacity="0.8"/>

      <ellipse cx="822" cy="622" rx="53" ry="34" fill="#3e8a8f" opacity="0.85"/>
      <ellipse cx="826" cy="607" rx="34" ry="24" fill="#86c8b8" opacity="0.8"/>

      <ellipse cx="967" cy="723" rx="41" ry="27" fill="#3e8a8f" opacity="0.85"/>
      <ellipse cx="972" cy="711" rx="27" ry="19" fill="#86c8b8" opacity="0.8"/>
  
    <path d="M0 750 Q 300 690 600 740 T 1200 720 L 1200 800 L 0 800 Z" fill="#7d7b6b" opacity="0.55"/>
    <path d="M0 760 Q 300 700 600 750 T 1200 730" stroke="#e6f5d6" stroke-width="2" fill="none" opacity="0.4"/>
  
  <rect x="40" y="40" width="320" height="64" rx="12" fill="rgba(8, 14, 8, 0.55)"/>
  <text x="60" y="80" font-family="Geist, Inter, sans-serif" font-size="22" font-weight="600" fill="#e6f5d6">Tabakfabrik Linz</text>
</svg>
