<?xml version="1.0" encoding="UTF-8"?>
<svg xmlns="http://www.w3.org/2000/svg" viewBox="0 0 1200 800" role="img" aria-label="Garten von Familie Reiter">
  <defs>
    <linearGradient id="sky-c-015" x1="0" y1="0" x2="0" y2="1">
      <stop offset="0%" stop-color="hsl(219 38% 18%)"/>
      <stop offset="60%" stop-color="hsl(204 30% 30%)"/>
      <stop offset="100%" stop-color="#0e1f12"/>
    </linearGradient>
    <radialGradient id="sun-c-015" cx="78%" cy="22%" r="40%">
      <stop offset="0%" stop-color="rgba(255, 235, 180, 0.55)"/>
      <stop offset="60%" stop-color="rgba(255, 235, 180, 0)"/>
    </radialGradient>
    <linearGradient id="ground-c-015" x1="0" y1="0" x2="0" y2="1">
      <stop offset="0%" stop-color="#1f4127"/>
      <stop offset="100%" stop-color="#0e1f12"/>
    </linearGradient>
  </defs>
  <rect width="1200" height="800" fill="url(#sky-c-015)"/>
  <rect width="1200" height="800" fill="url(#sun-c-015)"/>
  <path d="M0 460 Q 300 380 600 440 T 1200 420 L 1200 800 L 0 800 Z" fill="url(#ground-c-015)"/>
  <ellipse cx="797" cy="671" rx="169" ry="42" fill="#3a8fb0" opacity="0.85"/>
  
      <g transform="translate(987 473)">
        <rect x="-8" y="0" width="16" height="133" rx="4" fill="#3a2410"/>
        <ellipse cx="0" cy="-49" rx="122" ry="104" fill="#1f4127" opacity="0.92"/>
        <ellipse cx="4" cy="-73" rx="85" ry="73" fill="#3a7d3a" opacity="0.85"/>
        <ellipse cx="-9" cy="-98" rx="55" ry="49" fill="#7fbf5c" opacity="0.75"/>
      </g>

      <g transform="translate(192 583)">
        <rect x="-8" y="0" width="16" height="100" rx="4" fill="#3a2410"/>
        <ellipse cx="0" cy="-40" rx="100" ry="85" fill="#1f4127" opacity="0.92"/>
        <ellipse cx="3" cy="-60" rx="70" ry="60" fill="#3a7d3a" opacity="0.85"/>
        <ellipse cx="-11" cy="-80" rx="45" ry="40" fill="#7fbf5c" opacity="0.75"/>
      </g>

      <g transform="translate(687 599)">
        <rect x="-8" y="0" width="16" height="122" rx="4" fill="#3a2410"/>
        <ellipse cx="0" cy="-39" rx="97" ry="82" fill="#1f4127" opacity="0.92"/>
        <ellipse cx="5" cy="-58" rx="68" ry="58" fill="#3a7d3a" opacity="0.85"/>
        <ellipse cx="10" cy="-78" rx="44" ry="39" fill="#7fbf5c" opacity="0.75"/>
      </g>

      <g transform="translate(448 466)">
        <rect x="-8" y="0" width="16" height="114" rx="4" fill="#3a2410"/>
        <ellipse cx="0" cy="-46" rx="116" ry="99" fill="#1f4127" opacity="0.92"/>
        <ellipse cx="-7" cy="-70" rx="81" ry="70" fill="#3a7d3a" opacity="0.85"/>
        <ellipse cx="-14" cy="-93" rx="52" ry="46" fill="#7fbf5c" opacity="0.75"/>
      </g>
  
      <ellipse cx="1044" cy="703" rx="47" ry="31" fill="#3a7d3a" opacity="0.85"/>
      <ellipse cx="1052" cy="689" rx="31" ry="21" fill="#7fbf5c" opacity="0.8"/>

      <ellipse cx="876" cy="599" rx="30" ry="19" fill="#3a7d3a" opacity="0.85"/>
      <ellipse cx="888" cy="590" rx="19" ry="13" fill="#7fbf5c" opacity="0.8"/>

      <ellipse cx="740" cy="556" rx="31" ry="20" fill="#3a7d3a" opacity="0.85"/>
      <ellipse cx="745" cy="546" rx="20" ry="14" fill="#7fbf5c" opacity="0.8"/>

      <ellipse cx="211" cy="696" rx="43" ry="28" fill="#3a7d3a" opacity="0.85"/>
      <ellipse cx="211" cy="683" rx="28" ry="20" fill="#7fbf5c" opacity="0.8"/>
  
    <path d="M0 750 Q 300 690 600 740 T 1200 720 L 1200 800 L 0 800 Z" fill="#7d7b6b" opacity="0.55"/>
    <path d="M0 760 Q 300 700 600 750 T 1200 730" stroke="#dcefb1" stroke-width="2" fill="none" opacity="0.4"/>
  
  <rect x="40" y="40" width="320" height="64" rx="12" fill="rgba(8, 14, 8, 0.55)"/>
  <text x="60" y="80" font-family="Geist, Inter, sans-serif" font-size="22" font-weight="600" fill="#dcefb1">Familie Reiter</text>
</svg>
