<?xml version="1.0" encoding="UTF-8"?>
<svg xmlns="http://www.w3.org/2000/svg" viewBox="0 0 1200 800" role="img" aria-label="Garten von Lentos Café">
  <defs>
    <linearGradient id="sky-c-022" x1="0" y1="0" x2="0" y2="1">
      <stop offset="0%" stop-color="hsl(196 38% 18%)"/>
      <stop offset="60%" stop-color="hsl(181 30% 30%)"/>
      <stop offset="100%" stop-color="#0e1f12"/>
    </linearGradient>
    <radialGradient id="sun-c-022" cx="78%" cy="22%" r="40%">
      <stop offset="0%" stop-color="rgba(255, 235, 180, 0.55)"/>
      <stop offset="60%" stop-color="rgba(255, 235, 180, 0)"/>
    </radialGradient>
    <linearGradient id="ground-c-022" x1="0" y1="0" x2="0" y2="1">
      <stop offset="0%" stop-color="#1f4127"/>
      <stop offset="100%" stop-color="#0e1f12"/>
    </linearGradient>
  </defs>
  <rect width="1200" height="800" fill="url(#sky-c-022)"/>
  <rect width="1200" height="800" fill="url(#sun-c-022)"/>
  <path d="M0 460 Q 300 380 600 440 T 1200 420 L 1200 800 L 0 800 Z" fill="url(#ground-c-022)"/>
  
  
      <g transform="translate(654 643)">
        <rect x="-8" y="0" width="16" height="117" rx="4" fill="#3a2410"/>
        <ellipse cx="0" cy="-46" rx="116" ry="98" fill="#1f4127" opacity="0.92"/>
        <ellipse cx="-5" cy="-69" rx="81" ry="69" fill="#3a7d3a" opacity="0.85"/>
        <ellipse cx="-5" cy="-92" rx="52" ry="46" fill="#7fbf5c" opacity="0.75"/>
      </g>

      <g transform="translate(321 575)">
        <rect x="-8" y="0" width="16" height="143" rx="4" fill="#3a2410"/>
        <ellipse cx="0" cy="-32" rx="80" ry="68" fill="#1f4127" opacity="0.92"/>
        <ellipse cx="-5" cy="-48" rx="56" ry="48" fill="#3a7d3a" opacity="0.85"/>
        <ellipse cx="-14" cy="-64" rx="36" ry="32" fill="#7fbf5c" opacity="0.75"/>
      </g>

      <g transform="translate(788 546)">
        <rect x="-8" y="0" width="16" height="118" rx="4" fill="#3a2410"/>
        <ellipse cx="0" cy="-49" rx="124" ry="105" fill="#1f4127" opacity="0.92"/>
        <ellipse cx="-6" cy="-74" rx="87" ry="74" fill="#3a7d3a" opacity="0.85"/>
        <ellipse cx="11" cy="-99" rx="56" ry="49" fill="#7fbf5c" opacity="0.75"/>
      </g>

      <g transform="translate(908 573)">
        <rect x="-8" y="0" width="16" height="97" rx="4" fill="#3a2410"/>
        <ellipse cx="0" cy="-37" rx="92" ry="78" fill="#1f4127" opacity="0.92"/>
        <ellipse cx="-15" cy="-55" rx="64" ry="55" fill="#3a7d3a" opacity="0.85"/>
        <ellipse cx="12" cy="-74" rx="41" ry="37" fill="#7fbf5c" opacity="0.75"/>
      </g>
  
      <ellipse cx="557" cy="615" rx="32" ry="21" fill="#3a7d3a" opacity="0.85"/>
      <ellipse cx="565" cy="606" rx="21" ry="15" fill="#7fbf5c" opacity="0.8"/>

      <ellipse cx="621" cy="657" rx="53" ry="35" fill="#3a7d3a" opacity="0.85"/>
      <ellipse cx="623" cy="641" rx="35" ry="24" fill="#7fbf5c" opacity="0.8"/>

      <ellipse cx="780" cy="662" rx="39" ry="25" fill="#3a7d3a" opacity="0.85"/>
      <ellipse cx="782" cy="651" rx="25" ry="18" fill="#7fbf5c" opacity="0.8"/>

      <ellipse cx="148" cy="650" rx="41" ry="26" fill="#3a7d3a" opacity="0.85"/>
      <ellipse cx="152" cy="638" rx="26" ry="18" fill="#7fbf5c" opacity="0.8"/>

      <ellipse cx="1021" cy="681" rx="44" ry="29" fill="#3a7d3a" opacity="0.85"/>
      <ellipse cx="1023" cy="668" rx="29" ry="20" fill="#7fbf5c" opacity="0.8"/>

      <ellipse cx="304" cy="543" rx="74" ry="48" fill="#3a7d3a" opacity="0.85"/>
      <ellipse cx="315" cy="521" rx="48" ry="33" fill="#7fbf5c" opacity="0.8"/>

      <ellipse cx="954" cy="665" rx="33" ry="21" fill="#3a7d3a" opacity="0.85"/>
      <ellipse cx="963" cy="655" rx="21" ry="15" fill="#7fbf5c" opacity="0.8"/>

      <ellipse cx="959" cy="607" rx="65" ry="42" fill="#3a7d3a" opacity="0.85"/>
      <ellipse cx="968" cy="587" rx="42" ry="29" fill="#7fbf5c" opacity="0.8"/>
  
    <path d="M0 750 Q 300 690 600 740 T 1200 720 L 1200 800 L 0 800 Z" fill="#7a4f24" opacity="0.55"/>
    <path d="M0 760 Q 300 700 600 750 T 1200 730" stroke="#dcefb1" stroke-width="2" fill="none" opacity="0.4"/>
  
  <rect x="40" y="40" width="320" height="64" rx="12" fill="rgba(8, 14, 8, 0.55)"/>
  <text x="60" y="80" font-family="Geist, Inter, sans-serif" font-size="22" font-weight="600" fill="#dcefb1">Lentos Café</text>
</svg>
