<?xml version="1.0" encoding="UTF-8"?>
<svg xmlns="http://www.w3.org/2000/svg" viewBox="0 0 1200 800" role="img" aria-label="Garten von BG/BRG Khevenhüller">
  <defs>
    <linearGradient id="sky-c-024" x1="0" y1="0" x2="0" y2="1">
      <stop offset="0%" stop-color="hsl(232 38% 18%)"/>
      <stop offset="60%" stop-color="hsl(217 30% 30%)"/>
      <stop offset="100%" stop-color="#0d1c0d"/>
    </linearGradient>
    <radialGradient id="sun-c-024" cx="78%" cy="22%" r="40%">
      <stop offset="0%" stop-color="rgba(255, 235, 180, 0.55)"/>
      <stop offset="60%" stop-color="rgba(255, 235, 180, 0)"/>
    </radialGradient>
    <linearGradient id="ground-c-024" x1="0" y1="0" x2="0" y2="1">
      <stop offset="0%" stop-color="#22552b"/>
      <stop offset="100%" stop-color="#0d1c0d"/>
    </linearGradient>
  </defs>
  <rect width="1200" height="800" fill="url(#sky-c-024)"/>
  <rect width="1200" height="800" fill="url(#sun-c-024)"/>
  <path d="M0 460 Q 300 380 600 440 T 1200 420 L 1200 800 L 0 800 Z" fill="url(#ground-c-024)"/>
  
  
      <g transform="translate(818 495)">
        <rect x="-8" y="0" width="16" height="142" rx="4" fill="#3a2410"/>
        <ellipse cx="0" cy="-37" rx="93" ry="79" fill="#22552b" opacity="0.92"/>
        <ellipse cx="-14" cy="-56" rx="65" ry="56" fill="#4b9a4a" opacity="0.85"/>
        <ellipse cx="4" cy="-74" rx="42" ry="37" fill="#9bd07a" opacity="0.75"/>
      </g>

      <g transform="translate(613 555)">
        <rect x="-8" y="0" width="16" height="147" rx="4" fill="#3a2410"/>
        <ellipse cx="0" cy="-30" rx="76" ry="64" fill="#22552b" opacity="0.92"/>
        <ellipse cx="-12" cy="-45" rx="53" ry="45" fill="#4b9a4a" opacity="0.85"/>
        <ellipse cx="3" cy="-61" rx="34" ry="30" fill="#9bd07a" opacity="0.75"/>
      </g>

      <g transform="translate(889 592)">
        <rect x="-8" y="0" width="16" height="118" rx="4" fill="#3a2410"/>
        <ellipse cx="0" cy="-46" rx="115" ry="97" fill="#22552b" opacity="0.92"/>
        <ellipse cx="-1" cy="-69" rx="80" ry="69" fill="#4b9a4a" opacity="0.85"/>
        <ellipse cx="-3" cy="-92" rx="52" ry="46" fill="#9bd07a" opacity="0.75"/>
      </g>
  
      <ellipse cx="587" cy="730" rx="51" ry="33" fill="#4b9a4a" opacity="0.85"/>
      <ellipse cx="596" cy="714" rx="33" ry="23" fill="#9bd07a" opacity="0.8"/>

      <ellipse cx="122" cy="728" rx="32" ry="21" fill="#4b9a4a" opacity="0.85"/>
      <ellipse cx="134" cy="719" rx="21" ry="14" fill="#9bd07a" opacity="0.8"/>

      <ellipse cx="394" cy="760" rx="56" ry="36" fill="#4b9a4a" opacity="0.85"/>
      <ellipse cx="397" cy="743" rx="36" ry="25" fill="#9bd07a" opacity="0.8"/>

      <ellipse cx="1064" cy="671" rx="71" ry="46" fill="#4b9a4a" opacity="0.85"/>
      <ellipse cx="1067" cy="650" rx="46" ry="32" fill="#9bd07a" opacity="0.8"/>

      <ellipse cx="568" cy="542" rx="42" ry="27" fill="#4b9a4a" opacity="0.85"/>
      <ellipse cx="578" cy="530" rx="27" ry="19" fill="#9bd07a" opacity="0.8"/>

      <ellipse cx="188" cy="544" rx="54" ry="35" fill="#4b9a4a" opacity="0.85"/>
      <ellipse cx="192" cy="528" rx="35" ry="24" fill="#9bd07a" opacity="0.8"/>

      <ellipse cx="967" cy="661" rx="52" ry="34" fill="#4b9a4a" opacity="0.85"/>
      <ellipse cx="974" cy="645" rx="34" ry="23" fill="#9bd07a" opacity="0.8"/>

      <ellipse cx="919" cy="627" rx="64" ry="42" fill="#4b9a4a" opacity="0.85"/>
      <ellipse cx="920" cy="608" rx="42" ry="29" fill="#9bd07a" opacity="0.8"/>
  
    <path d="M0 750 Q 300 690 600 740 T 1200 720 L 1200 800 L 0 800 Z" fill="#7a4f24" opacity="0.55"/>
    <path d="M0 760 Q 300 700 600 750 T 1200 730" stroke="#f3eec0" stroke-width="2" fill="none" opacity="0.4"/>
  
  <rect x="40" y="40" width="320" height="64" rx="12" fill="rgba(8, 14, 8, 0.55)"/>
  <text x="60" y="80" font-family="Geist, Inter, sans-serif" font-size="22" font-weight="600" fill="#f3eec0">BG/BRG Khevenhüller</text>
</svg>
