<?xml version="1.0" encoding="UTF-8"?>
<svg xmlns="http://www.w3.org/2000/svg" viewBox="0 0 1200 800" role="img" aria-label="Garten von Plus City Pasching">
  <defs>
    <linearGradient id="sky-c-021" x1="0" y1="0" x2="0" y2="1">
      <stop offset="0%" stop-color="hsl(198 38% 18%)"/>
      <stop offset="60%" stop-color="hsl(183 30% 30%)"/>
      <stop offset="100%" stop-color="#0c1b1f"/>
    </linearGradient>
    <radialGradient id="sun-c-021" cx="78%" cy="22%" r="40%">
      <stop offset="0%" stop-color="rgba(255, 235, 180, 0.55)"/>
      <stop offset="60%" stop-color="rgba(255, 235, 180, 0)"/>
    </radialGradient>
    <linearGradient id="ground-c-021" x1="0" y1="0" x2="0" y2="1">
      <stop offset="0%" stop-color="#143b40"/>
      <stop offset="100%" stop-color="#0c1b1f"/>
    </linearGradient>
  </defs>
  <rect width="1200" height="800" fill="url(#sky-c-021)"/>
  <rect width="1200" height="800" fill="url(#sun-c-021)"/>
  <path d="M0 460 Q 300 380 600 440 T 1200 420 L 1200 800 L 0 800 Z" fill="url(#ground-c-021)"/>
  <ellipse cx="808" cy="646" rx="175" ry="44" fill="#266c8a" opacity="0.85"/>
  
      <g transform="translate(597 541)">
        <rect x="-8" y="0" width="16" height="136" rx="4" fill="#3a2410"/>
        <ellipse cx="0" cy="-43" rx="108" ry="91" fill="#143b40" opacity="0.92"/>
        <ellipse cx="5" cy="-65" rx="75" ry="65" fill="#266b62" opacity="0.85"/>
        <ellipse cx="13" cy="-86" rx="48" ry="43" fill="#5fb5a0" opacity="0.75"/>
      </g>

      <g transform="translate(377 526)">
        <rect x="-8" y="0" width="16" height="149" rx="4" fill="#3a2410"/>
        <ellipse cx="0" cy="-48" rx="120" ry="102" fill="#143b40" opacity="0.92"/>
        <ellipse cx="-8" cy="-72" rx="84" ry="72" fill="#266b62" opacity="0.85"/>
        <ellipse cx="-9" cy="-96" rx="54" ry="48" fill="#5fb5a0" opacity="0.75"/>
      </g>

      <g transform="translate(556 536)">
        <rect x="-8" y="0" width="16" height="91" rx="4" fill="#3a2410"/>
        <ellipse cx="0" cy="-39" rx="96" ry="82" fill="#143b40" opacity="0.92"/>
        <ellipse cx="-6" cy="-58" rx="67" ry="58" fill="#266b62" opacity="0.85"/>
        <ellipse cx="-14" cy="-77" rx="43" ry="39" fill="#5fb5a0" opacity="0.75"/>
      </g>

      <g transform="translate(283 549)">
        <rect x="-8" y="0" width="16" height="97" rx="4" fill="#3a2410"/>
        <ellipse cx="0" cy="-47" rx="118" ry="100" fill="#143b40" opacity="0.92"/>
        <ellipse cx="12" cy="-71" rx="83" ry="71" fill="#266b62" opacity="0.85"/>
        <ellipse cx="-9" cy="-95" rx="53" ry="47" fill="#5fb5a0" opacity="0.75"/>
      </g>

      <g transform="translate(134 633)">
        <rect x="-8" y="0" width="16" height="90" rx="4" fill="#3a2410"/>
        <ellipse cx="0" cy="-51" rx="126" ry="107" fill="#143b40" opacity="0.92"/>
        <ellipse cx="7" cy="-76" rx="88" ry="76" fill="#266b62" opacity="0.85"/>
        <ellipse cx="-7" cy="-101" rx="57" ry="51" fill="#5fb5a0" opacity="0.75"/>
      </g>
  
      <ellipse cx="127" cy="636" rx="44" ry="29" fill="#266b62" opacity="0.85"/>
      <ellipse cx="135" cy="622" rx="29" ry="20" fill="#5fb5a0" opacity="0.8"/>

      <ellipse cx="961" cy="721" rx="58" ry="38" fill="#266b62" opacity="0.85"/>
      <ellipse cx="972" cy="703" rx="38" ry="26" fill="#5fb5a0" opacity="0.8"/>

      <ellipse cx="1006" cy="701" rx="71" ry="46" fill="#266b62" opacity="0.85"/>
      <ellipse cx="1014" cy="680" rx="46" ry="32" fill="#5fb5a0" opacity="0.8"/>

      <ellipse cx="353" cy="712" rx="59" ry="38" fill="#266b62" opacity="0.85"/>
      <ellipse cx="363" cy="694" rx="38" ry="27" fill="#5fb5a0" opacity="0.8"/>

      <ellipse cx="86" cy="655" rx="67" ry="43" fill="#266b62" opacity="0.85"/>
      <ellipse cx="94" cy="635" rx="43" ry="30" fill="#5fb5a0" opacity="0.8"/>
  
    <path d="M0 750 Q 300 690 600 740 T 1200 720 L 1200 800 L 0 800 Z" fill="#7a4f24" opacity="0.55"/>
    <path d="M0 760 Q 300 700 600 750 T 1200 730" stroke="#cdeacb" stroke-width="2" fill="none" opacity="0.4"/>
  
  <rect x="40" y="40" width="320" height="64" rx="12" fill="rgba(8, 14, 8, 0.55)"/>
  <text x="60" y="80" font-family="Geist, Inter, sans-serif" font-size="22" font-weight="600" fill="#cdeacb">Plus City Pasching</text>
</svg>
