<?xml version="1.0" encoding="UTF-8"?>
<svg xmlns="http://www.w3.org/2000/svg" viewBox="0 0 1200 800" role="img" aria-label="Garten von St.-Barbara-Friedhof">
  <defs>
    <linearGradient id="sky-c-025" x1="0" y1="0" x2="0" y2="1">
      <stop offset="0%" stop-color="hsl(230 38% 18%)"/>
      <stop offset="60%" stop-color="hsl(215 30% 30%)"/>
      <stop offset="100%" stop-color="#1b1208"/>
    </linearGradient>
    <radialGradient id="sun-c-025" cx="78%" cy="22%" r="40%">
      <stop offset="0%" stop-color="rgba(255, 235, 180, 0.55)"/>
      <stop offset="60%" stop-color="rgba(255, 235, 180, 0)"/>
    </radialGradient>
    <linearGradient id="ground-c-025" x1="0" y1="0" x2="0" y2="1">
      <stop offset="0%" stop-color="#3a2415"/>
      <stop offset="100%" stop-color="#1b1208"/>
    </linearGradient>
  </defs>
  <rect width="1200" height="800" fill="url(#sky-c-025)"/>
  <rect width="1200" height="800" fill="url(#sun-c-025)"/>
  <path d="M0 460 Q 300 380 600 440 T 1200 420 L 1200 800 L 0 800 Z" fill="url(#ground-c-025)"/>
  <ellipse cx="846" cy="673" rx="163" ry="43" fill="#3a8fb0" opacity="0.85"/>
  
      <g transform="translate(780 610)">
        <rect x="-8" y="0" width="16" height="130" rx="4" fill="#3a2410"/>
        <ellipse cx="0" cy="-48" rx="121" ry="103" fill="#3a2415" opacity="0.92"/>
        <ellipse cx="13" cy="-73" rx="85" ry="73" fill="#6f4520" opacity="0.85"/>
        <ellipse cx="13" cy="-97" rx="54" ry="48" fill="#b6884c" opacity="0.75"/>
      </g>

      <g transform="translate(927 537)">
        <rect x="-8" y="0" width="16" height="124" rx="4" fill="#3a2410"/>
        <ellipse cx="0" cy="-38" rx="96" ry="81" fill="#3a2415" opacity="0.92"/>
        <ellipse cx="11" cy="-58" rx="67" ry="58" fill="#6f4520" opacity="0.85"/>
        <ellipse cx="-14" cy="-77" rx="43" ry="38" fill="#b6884c" opacity="0.75"/>
      </g>
  
      <ellipse cx="259" cy="741" rx="57" ry="37" fill="#6f4520" opacity="0.85"/>
      <ellipse cx="260" cy="724" rx="37" ry="25" fill="#b6884c" opacity="0.8"/>

      <ellipse cx="326" cy="679" rx="33" ry="22" fill="#6f4520" opacity="0.85"/>
      <ellipse cx="331" cy="669" rx="22" ry="15" fill="#b6884c" opacity="0.8"/>

      <ellipse cx="813" cy="600" rx="67" ry="43" fill="#6f4520" opacity="0.85"/>
      <ellipse cx="816" cy="580" rx="43" ry="30" fill="#b6884c" opacity="0.8"/>

      <ellipse cx="263" cy="633" rx="32" ry="21" fill="#6f4520" opacity="0.85"/>
      <ellipse cx="269" cy="623" rx="21" ry="14" fill="#b6884c" opacity="0.8"/>
  
    <path d="M0 750 Q 300 690 600 740 T 1200 720 L 1200 800 L 0 800 Z" fill="#7a4f24" opacity="0.55"/>
    <path d="M0 760 Q 300 700 600 750 T 1200 730" stroke="#e9d49a" stroke-width="2" fill="none" opacity="0.4"/>
  
  <rect x="40" y="40" width="320" height="64" rx="12" fill="rgba(8, 14, 8, 0.55)"/>
  <text x="60" y="80" font-family="Geist, Inter, sans-serif" font-size="22" font-weight="600" fill="#e9d49a">St.-Barbara-Friedhof</text>
</svg>
