<?xml version="1.0" encoding="UTF-8"?>
<svg xmlns="http://www.w3.org/2000/svg" viewBox="0 0 1200 800" role="img" aria-label="Garten von Donauschiff Restaurant">
  <defs>
    <linearGradient id="sky-c-020" x1="0" y1="0" x2="0" y2="1">
      <stop offset="0%" stop-color="hsl(200 38% 18%)"/>
      <stop offset="60%" stop-color="hsl(185 30% 30%)"/>
      <stop offset="100%" stop-color="#1b1208"/>
    </linearGradient>
    <radialGradient id="sun-c-020" cx="78%" cy="22%" r="40%">
      <stop offset="0%" stop-color="rgba(255, 235, 180, 0.55)"/>
      <stop offset="60%" stop-color="rgba(255, 235, 180, 0)"/>
    </radialGradient>
    <linearGradient id="ground-c-020" x1="0" y1="0" x2="0" y2="1">
      <stop offset="0%" stop-color="#3a2415"/>
      <stop offset="100%" stop-color="#1b1208"/>
    </linearGradient>
  </defs>
  <rect width="1200" height="800" fill="url(#sky-c-020)"/>
  <rect width="1200" height="800" fill="url(#sun-c-020)"/>
  <path d="M0 460 Q 300 380 600 440 T 1200 420 L 1200 800 L 0 800 Z" fill="url(#ground-c-020)"/>
  
  
      <g transform="translate(311 532)">
        <rect x="-8" y="0" width="16" height="113" rx="4" fill="#3a2410"/>
        <ellipse cx="0" cy="-37" rx="92" ry="78" fill="#3a2415" opacity="0.92"/>
        <ellipse cx="-8" cy="-55" rx="64" ry="55" fill="#6f4520" opacity="0.85"/>
        <ellipse cx="11" cy="-74" rx="41" ry="37" fill="#b6884c" opacity="0.75"/>
      </g>

      <g transform="translate(996 636)">
        <rect x="-8" y="0" width="16" height="143" rx="4" fill="#3a2410"/>
        <ellipse cx="0" cy="-46" rx="114" ry="97" fill="#3a2415" opacity="0.92"/>
        <ellipse cx="7" cy="-68" rx="80" ry="68" fill="#6f4520" opacity="0.85"/>
        <ellipse cx="-10" cy="-91" rx="51" ry="46" fill="#b6884c" opacity="0.75"/>
      </g>
  
      <ellipse cx="205" cy="745" rx="66" ry="43" fill="#6f4520" opacity="0.85"/>
      <ellipse cx="205" cy="725" rx="43" ry="30" fill="#b6884c" opacity="0.8"/>

      <ellipse cx="646" cy="733" rx="68" ry="44" fill="#6f4520" opacity="0.85"/>
      <ellipse cx="654" cy="713" rx="44" ry="30" fill="#b6884c" opacity="0.8"/>

      <ellipse cx="645" cy="570" rx="34" ry="22" fill="#6f4520" opacity="0.85"/>
      <ellipse cx="652" cy="560" rx="22" ry="15" fill="#b6884c" opacity="0.8"/>

      <ellipse cx="1034" cy="583" rx="63" ry="41" fill="#6f4520" opacity="0.85"/>
      <ellipse cx="1043" cy="564" rx="41" ry="28" fill="#b6884c" opacity="0.8"/>

      <ellipse cx="168" cy="649" rx="35" ry="23" fill="#6f4520" opacity="0.85"/>
      <ellipse cx="170" cy="638" rx="23" ry="16" fill="#b6884c" opacity="0.8"/>

      <ellipse cx="1081" cy="577" rx="55" ry="36" fill="#6f4520" opacity="0.85"/>
      <ellipse cx="1084" cy="560" rx="36" ry="25" fill="#b6884c" opacity="0.8"/>

      <ellipse cx="948" cy="599" rx="37" ry="24" fill="#6f4520" opacity="0.85"/>
      <ellipse cx="955" cy="588" rx="24" ry="17" fill="#b6884c" opacity="0.8"/>

      <ellipse cx="401" cy="660" rx="67" ry="44" fill="#6f4520" opacity="0.85"/>
      <ellipse cx="406" cy="639" rx="44" ry="30" fill="#b6884c" opacity="0.8"/>
  
    <path d="M0 750 Q 300 690 600 740 T 1200 720 L 1200 800 L 0 800 Z" fill="#7a4f24" opacity="0.55"/>
    <path d="M0 760 Q 300 700 600 750 T 1200 730" stroke="#e9d49a" stroke-width="2" fill="none" opacity="0.4"/>
  
  <rect x="40" y="40" width="320" height="64" rx="12" fill="rgba(8, 14, 8, 0.55)"/>
  <text x="60" y="80" font-family="Geist, Inter, sans-serif" font-size="22" font-weight="600" fill="#e9d49a">Donauschiff Restaurant</text>
</svg>
